# xmcd CD database file
#
# Track frame offsets:
#	182
#	26180
#	45767
#	71827
#	95872
#	119830
#	148020
#	168377
#
# Disc length: 2509 seconds
#
# Revision: 3
# Processed by: cddbd v1.5PL3 Copyright (c) Steve Scherf et al.
# Submitted via: CDex 1.51
#
DISCID=7709cb08
DTITLE=Celia Cruz and Willie Colon - The Winners
DYEAR=1900
DGENRE=Salsa
TTITLE0=Un Bembe Pa' Yemaya
TTITLE1=Son Matamoros
TTITLE2=Vendedores
TTITLE3=El Paraiso
TTITLE4=Dice Anton
TTITLE5=Yo Si Soy Veneno
TTITLE6=Se Tambalea
TTITLE7=Ache Para Todos
EXTD=
EXTT0=
EXTT1=
EXTT2=
EXTT3=
EXTT4=
EXTT5=
EXTT6=
EXTT7=
PLAYORDER=
